# xmcd
#
# Track frame offsets:
#	150
#	14535
#	27567
#	39938
#	52279
#	64419
#	76238
#	88099
#	102190
#	115189
#	124959
#	134719
#	148997
#	161666
#	170739
#	183130
#	196008
#	207259
#	219222
#	230262
#
# Disc length: 3273 seconds
#
# Revision: 0
# Processed by: cddbd v1.5.2PL0 Copyright (c) Steve Scherf et al.
# Submitted via: audiograbber 1.83.01
#
DISCID=260cc714
DTITLE=Vera Lynn - Encore Of Golden Hits
DYEAR=1900
DGENRE=
TTITLE0=While You Danced, Danced, Danced
TTITLE1=Tulips And Heather
TTITLE2=Show Me The Way
TTITLE3=My Happieness
TTITLE4=Me Son, My Son
TTITLE5=Windsor Waltz
TTITLE6=The Home Coming Waltz
TTITLE7=I`m Praying To St.Christopher
TTITLE8=Doonaree
TTITLE9=The Love Of My Life
TTITLE10=I Don`t Care
TTITLE11=Forget Me Not
TTITLE12=Don`t Blame Me
TTITLE13=Addio Amore
TTITLE14=There Must Be A Reason
TTITLE15=Cry
TTITLE16=Please, Mr.Sun
TTITLE17=Auf Wiederseh`n Sweetheart
TTITLE18=From The Time You Say Goodbye
TTITLE19=We`ll Meet Again
EXTD=
EXTT0=
EXTT1=
EXTT2=
EXTT3=
EXTT4=
EXTT5=
EXTT6=
EXTT7=
EXTT8=
EXTT9=
EXTT10=
EXTT11=
EXTT12=
EXTT13=
EXTT14=
EXTT15=
EXTT16=
EXTT17=
EXTT18=
EXTT19=
PLAYORDER=
